<svg width="184" height="38" viewBox="0 0 184 38" fill="none" xmlns="http://www.w3.org/2000/svg">
<rect x="18" y="14.23" width="4" height="2.44" fill="#27A899"/>
<path d="M5.29405 30.151C4.3012 30.151 3.40356 29.9675 2.60112 29.6006C1.79868 29.2269 1.16285 28.6867 0.693633 27.98C0.231211 27.2734 0 26.407 0 25.381C0 24.4977 0.170008 23.7706 0.510024 23.1999C0.85004 22.6291 1.30906 22.1772 1.88709 21.8443C2.46512 21.5113 3.11115 21.2599 3.82518 21.0901C4.53921 20.9202 5.26685 20.7911 6.00808 20.7028C6.94653 20.594 7.70816 20.5057 8.29299 20.4378C8.87782 20.363 9.30284 20.2441 9.56805 20.081C9.83326 19.918 9.96587 19.653 9.96587 19.286V19.2147C9.96587 18.3246 9.71426 17.6349 9.21103 17.1457C8.71461 16.6564 7.97337 16.4118 6.98733 16.4118C5.96048 16.4118 5.15124 16.6395 4.55961 17.0947C3.97479 17.5432 3.57017 18.0426 3.34576 18.593L0.479422 17.9407C0.819439 16.9894 1.31586 16.2216 1.96869 15.6372C2.62832 15.0461 3.38656 14.618 4.2434 14.353C5.10024 14.0812 6.00128 13.9453 6.94653 13.9453C7.57215 13.9453 8.23519 14.02 8.93562 14.1695C9.64285 14.3122 10.3025 14.5772 10.9145 14.9645C11.5333 15.3518 12.04 15.9056 12.4344 16.6259C12.8288 17.3393 13.026 18.2668 13.026 19.4083V29.8044H10.0475V27.6641H9.92507C9.72786 28.0582 9.43204 28.4455 9.03762 28.826C8.64321 29.2065 8.13658 29.5224 7.51775 29.7739C6.89892 30.0253 6.15769 30.151 5.29405 30.151ZM5.95708 27.7048C6.80032 27.7048 7.52115 27.5384 8.11958 27.2054C8.72481 26.8725 9.18383 26.4376 9.49665 25.9008C9.81626 25.3572 9.97607 24.7763 9.97607 24.1579V22.1399C9.86726 22.2486 9.65645 22.3505 9.34364 22.4456C9.03762 22.534 8.68741 22.6121 8.29299 22.6801C7.89857 22.7412 7.51435 22.799 7.14034 22.8533C6.76632 22.9009 6.4535 22.9417 6.20189 22.9756C5.61026 23.0504 5.06964 23.1761 4.58002 23.3527C4.09719 23.5294 3.70957 23.7842 3.41716 24.1172C3.13155 24.4433 2.98874 24.8782 2.98874 25.4218C2.98874 26.176 3.26755 26.7468 3.82518 27.1341C4.38281 27.5146 5.09344 27.7048 5.95708 27.7048Z" fill="#27A899"/>
<path d="M24.4021 14.1491V16.5953H15.8439V14.1491H24.4021ZM18.139 10.3984H21.1889V15.4266V25.2077C21.1889 25.7989 21.2773 26.2439 21.4542 26.5429C21.631 26.8351 21.8588 27.0355 22.1376 27.1443C22.4232 27.2462 22.7326 27.2971 23.0658 27.2971C23.3106 27.2971 23.5249 27.2802 23.7085 27.2462C23.8921 27.2122 24.0349 27.185 24.1369 27.1646L24.6877 29.6821C24.5109 29.7501 24.2593 29.818 23.9329 29.886C23.6065 29.9607 23.1984 30.0015 22.7088 30.0083C21.9064 30.0219 21.1583 29.8792 20.4647 29.5802C19.7711 29.2812 19.2101 28.8192 18.7816 28.1941C18.3532 27.5689 18.139 26.7841 18.139 25.8396V10.3984Z" fill="#27A899"/>
<path d="M31.1625 20.5091V29.8044H28.1125V8.93072H31.1217V16.6972H31.3155C31.6827 15.8546 32.2437 15.1854 32.9986 14.6893C33.7534 14.1933 34.7394 13.9453 35.9567 13.9453C37.0311 13.9453 37.9696 14.1661 38.772 14.6078C39.5813 15.0495 40.2069 15.7086 40.6489 16.5851C41.0977 17.4548 41.3221 18.542 41.3221 19.8466V29.8044H38.2722V20.2135C38.2722 19.0652 37.9764 18.1751 37.3848 17.5432C36.7931 16.9045 35.9703 16.5851 34.9162 16.5851C34.1954 16.5851 33.5494 16.738 32.9781 17.0437C32.4137 17.3495 31.9683 17.798 31.6419 18.3891C31.3223 18.9735 31.1625 19.6801 31.1625 20.5091Z" fill="#27A899"/>
<path d="M51.9918 30.1204C50.523 30.1204 49.2411 29.784 48.1463 29.1114C47.0514 28.4387 46.2014 27.4976 45.5961 26.2881C44.9909 25.0786 44.6883 23.6653 44.6883 22.0481C44.6883 20.4242 44.9909 19.0041 45.5961 17.7878C46.2014 16.5715 47.0514 15.627 48.1463 14.9543C49.2411 14.2816 50.523 13.9453 51.9918 13.9453C53.4607 13.9453 54.7426 14.2816 55.8374 14.9543C56.9323 15.627 57.7823 16.5715 58.3875 17.7878C58.9928 19.0041 59.2954 20.4242 59.2954 22.0481C59.2954 23.6653 58.9928 25.0786 58.3875 26.2881C57.7823 27.4976 56.9323 28.4387 55.8374 29.1114C54.7426 29.784 53.4607 30.1204 51.9918 30.1204ZM52.002 27.5621C52.9541 27.5621 53.7429 27.3107 54.3686 26.8079C54.9942 26.3051 55.4566 25.6358 55.7558 24.8C56.0618 23.9643 56.2148 23.0436 56.2148 22.0379C56.2148 21.0391 56.0618 20.1218 55.7558 19.286C55.4566 18.4435 54.9942 17.7674 54.3686 17.2578C53.7429 16.7482 52.9541 16.4934 52.002 16.4934C51.0432 16.4934 50.2476 16.7482 49.6151 17.2578C48.9895 17.7674 48.5237 18.4435 48.2177 19.286C47.9185 20.1218 47.7688 21.0391 47.7688 22.0379C47.7688 23.0436 47.9185 23.9643 48.2177 24.8C48.5237 25.6358 48.9895 26.3051 49.6151 26.8079C50.2476 27.3107 51.0432 27.5621 52.002 27.5621Z" fill="#27A899"/>
<path d="M62.6998 29.8044V14.1491H65.6273V16.6972H65.8211C66.1476 15.8343 66.6814 15.1616 67.4226 14.6791C68.1638 14.1899 69.0513 13.9453 70.0849 13.9453C71.1322 13.9453 72.0094 14.1899 72.7167 14.6791C73.4307 15.1684 73.9577 15.8411 74.2977 16.6972H74.461C74.835 15.8614 75.43 15.1956 76.246 14.6995C77.0621 14.1967 78.0345 13.9453 79.1634 13.9453C80.5846 13.9453 81.7441 14.3904 82.6417 15.2805C83.5462 16.1706 83.9984 17.5126 83.9984 19.3064V29.8044H80.9484V19.5918C80.9484 18.5318 80.6594 17.764 80.0814 17.2884C79.5034 16.8127 78.8131 16.5749 78.0107 16.5749C77.0179 16.5749 76.246 16.8807 75.6952 17.4922C75.1444 18.0969 74.869 18.875 74.869 19.8262V29.8044H71.8292V19.3982C71.8292 18.5488 71.564 17.8659 71.0336 17.3495C70.5032 16.8331 69.8129 16.5749 68.9629 16.5749C68.3849 16.5749 67.851 16.7278 67.3614 17.0336C66.8786 17.3325 66.4876 17.7504 66.1884 18.2872C65.8959 18.824 65.7497 19.4457 65.7497 20.1524V29.8044H62.6998Z" fill="#27A899"/>
<path d="M89.6413 4.98972C89.6413 3.33854 90.9809 2 92.6335 2H180.008C181.66 2 183 3.33854 183 4.98972V33.3921C183 35.0433 181.66 36.3818 180.008 36.3818H92.6335C90.9809 36.3818 89.6413 35.0433 89.6413 33.3921V4.98972Z" fill="#27A899"/>
<path d="M94.0377 29.8044V8.93072H97.0877V16.687H97.2713C97.4481 16.3609 97.7031 15.9838 98.0363 15.5557C98.3695 15.1276 98.832 14.7539 99.4236 14.4345C100.015 14.1084 100.797 13.9453 101.77 13.9453C103.035 13.9453 104.163 14.2647 105.156 14.9034C106.149 15.5421 106.928 16.4628 107.492 17.6655C108.063 18.8682 108.349 20.3155 108.349 22.0074C108.349 23.6993 108.067 25.15 107.502 26.3595C106.938 27.5621 106.163 28.4896 105.177 29.1419C104.191 29.7874 103.065 30.1102 101.8 30.1102C100.848 30.1102 100.07 29.9505 99.4644 29.6312C98.866 29.3118 98.3967 28.9381 98.0567 28.51C97.7167 28.0819 97.4549 27.7014 97.2713 27.3685H97.0163V29.8044H94.0377ZM97.0265 21.9768C97.0265 23.0776 97.1863 24.0424 97.5059 24.8714C97.8255 25.7004 98.2879 26.3493 98.8932 26.8181C99.4984 27.2801 100.24 27.5112 101.117 27.5112C102.028 27.5112 102.79 27.27 103.402 26.7875C104.014 26.2983 104.476 25.6358 104.789 24.8C105.109 23.9643 105.268 23.0232 105.268 21.9768C105.268 20.944 105.112 20.0165 104.799 19.1943C104.493 18.3721 104.031 17.7232 103.412 17.2476C102.8 16.772 102.035 16.5341 101.117 16.5341C100.233 16.5341 99.4848 16.7618 98.8728 17.217C98.2675 17.6723 97.8085 18.3076 97.4957 19.123C97.1829 19.9383 97.0265 20.8896 97.0265 21.9768Z" fill="white"/>
<path d="M111.774 29.8044V14.1491H114.722V16.6361H114.885C115.171 15.7935 115.674 15.131 116.395 14.6486C117.122 14.1593 117.945 13.9147 118.863 13.9147C119.054 13.9147 119.278 13.9215 119.536 13.9351C119.802 13.9487 120.009 13.9657 120.159 13.9861V16.9011C120.036 16.8671 119.819 16.8297 119.506 16.7889C119.193 16.7414 118.88 16.7176 118.567 16.7176C117.847 16.7176 117.204 16.8705 116.639 17.1762C116.082 17.4752 115.64 17.8931 115.313 18.4299C114.987 18.9599 114.824 19.5646 114.824 20.2441V29.8044H111.774Z" fill="white"/>
<path d="M122.798 29.8044V14.1491H125.848V29.8044H122.798ZM124.338 11.7336C123.808 11.7336 123.352 11.5569 122.971 11.2036C122.597 10.8435 122.41 10.4154 122.41 9.91937C122.41 9.41655 122.597 8.98848 122.971 8.63515C123.352 8.27502 123.808 8.09496 124.338 8.09496C124.869 8.09496 125.321 8.27502 125.695 8.63515C126.076 8.98848 126.266 9.41655 126.266 9.91937C126.266 10.4154 126.076 10.8435 125.695 11.2036C125.321 11.5569 124.869 11.7336 124.338 11.7336Z" fill="white"/>
<path d="M135.816 30.1102C134.551 30.1102 133.423 29.7874 132.43 29.1419C131.444 28.4896 130.669 27.5621 130.104 26.3595C129.546 25.15 129.268 23.6993 129.268 22.0074C129.268 20.3155 129.55 18.8682 130.114 17.6655C130.686 16.4628 131.468 15.5421 132.46 14.9034C133.453 14.2647 134.579 13.9453 135.837 13.9453C136.809 13.9453 137.591 14.1084 138.183 14.4345C138.781 14.7539 139.244 15.1276 139.57 15.5557C139.903 15.9838 140.162 16.3609 140.345 16.687H140.529V8.93072H143.579V29.8044H140.6V27.3685H140.345C140.162 27.7014 139.897 28.0819 139.55 28.51C139.21 28.9381 138.74 29.3118 138.142 29.6312C137.544 29.9505 136.768 30.1102 135.816 30.1102ZM136.49 27.5112C137.367 27.5112 138.108 27.2801 138.713 26.8181C139.325 26.3493 139.788 25.7004 140.101 24.8714C140.42 24.0424 140.58 23.0776 140.58 21.9768C140.58 20.8896 140.424 19.9383 140.111 19.123C139.798 18.3076 139.339 17.6723 138.734 17.217C138.128 16.7618 137.38 16.5341 136.49 16.5341C135.572 16.5341 134.807 16.772 134.194 17.2476C133.582 17.7232 133.12 18.3721 132.807 19.1943C132.501 20.0165 132.348 20.944 132.348 21.9768C132.348 23.0232 132.505 23.9643 132.817 24.8C133.13 25.6358 133.593 26.2983 134.205 26.7875C134.824 27.27 135.585 27.5112 136.49 27.5112Z" fill="white"/>
<path d="M154.501 36.0013C153.257 36.0013 152.186 35.8382 151.288 35.5121C150.397 35.1859 149.669 34.7545 149.105 34.2177C148.541 33.6809 148.119 33.0931 147.84 32.4544L150.462 31.374C150.645 31.673 150.89 31.989 151.196 32.3219C151.509 32.6617 151.931 32.9504 152.461 33.1883C152.998 33.4261 153.688 33.545 154.532 33.545C155.688 33.545 156.643 33.263 157.398 32.699C158.153 32.1418 158.53 31.2517 158.53 30.0287V26.9506H158.336C158.153 27.2835 157.888 27.6539 157.541 28.0616C157.201 28.4692 156.732 28.8226 156.133 29.1215C155.535 29.4205 154.756 29.57 153.797 29.57C152.56 29.57 151.444 29.2812 150.451 28.7037C149.465 28.1193 148.683 27.2598 148.105 26.125C147.534 24.9835 147.249 23.5804 147.249 21.9156C147.249 20.2509 147.531 18.824 148.095 17.6349C148.666 16.4458 149.448 15.5353 150.441 14.9034C151.434 14.2647 152.56 13.9453 153.818 13.9453C154.79 13.9453 155.576 14.1084 156.174 14.4345C156.772 14.7539 157.238 15.1276 157.571 15.5557C157.911 15.9838 158.173 16.3609 158.357 16.687H158.581V14.1491H161.57V30.151C161.57 31.4963 161.257 32.6005 160.632 33.4634C160.006 34.3264 159.159 34.9651 158.092 35.3796C157.031 35.7941 155.834 36.0013 154.501 36.0013ZM154.47 27.0423C155.348 27.0423 156.089 26.8385 156.694 26.4308C157.306 26.0163 157.769 25.4252 158.081 24.6573C158.401 23.8827 158.561 22.9552 158.561 21.8749C158.561 20.8217 158.404 19.8942 158.092 19.0924C157.779 18.2906 157.32 17.6655 156.715 17.217C156.109 16.7618 155.361 16.5341 154.47 16.5341C153.552 16.5341 152.787 16.772 152.175 17.2476C151.563 17.7164 151.101 18.3551 150.788 19.1637C150.482 19.9723 150.329 20.876 150.329 21.8749C150.329 22.9009 150.485 23.8012 150.798 24.5758C151.111 25.3504 151.574 25.9552 152.186 26.39C152.804 26.8249 153.566 27.0423 154.47 27.0423Z" fill="white"/>
<path d="M172.413 30.1204C170.869 30.1204 169.54 29.7908 168.425 29.1317C167.316 28.4658 166.459 27.5316 165.854 26.3289C165.256 25.1194 164.957 23.7027 164.957 22.0787C164.957 20.4751 165.256 19.0618 165.854 17.8387C166.459 16.6157 167.303 15.661 168.384 14.9747C169.472 14.2884 170.744 13.9453 172.199 13.9453C173.083 13.9453 173.94 14.0914 174.769 14.3836C175.599 14.6757 176.344 15.1344 177.003 15.7595C177.663 16.3846 178.183 17.1966 178.564 18.1955C178.945 19.1875 179.135 20.3936 179.135 21.8137V22.8941H167.999L167.996 20.8964L176.146 20.611C176.146 19.8092 175.983 19.0992 175.657 18.4809C175.33 17.8557 174.871 17.3631 174.28 17.003C173.695 16.6429 173.008 16.4628 172.219 16.4628C171.362 16.4628 170.614 16.6734 169.975 17.0947C169.343 17.5092 168.853 18.0528 168.506 18.7255C168.166 19.3914 167.996 20.115 167.996 20.8964V22.6801C167.996 23.7265 168.18 24.6166 168.547 25.3504C168.921 26.0843 169.441 26.6448 170.108 27.0321C170.774 27.4126 171.553 27.6029 172.444 27.6029C173.022 27.6029 173.549 27.5214 174.025 27.3583C174.501 27.1884 174.912 26.937 175.259 26.6041C175.606 26.2711 175.871 25.86 176.055 25.3708L178.941 25.8906C178.71 26.74 178.295 27.484 177.697 28.1227C177.105 28.7546 176.361 29.2473 175.463 29.6006C174.572 29.9471 173.556 30.1204 172.413 30.1204Z" fill="white"/>
</svg>
